<svg xmlns="http://www.w3.org/2000/svg"  viewBox="0 0 100 100" width="100px" height="100px"><circle cx="50" cy="50" r="35" fill="#40a6dd"/><path fill="#3a83c1" d="M84.6,55.3c-1.92,12.66-10.63,23.1-22.31,27.48L43,69V31l16,2L84.6,55.3z"/><path fill="#1f212b" d="M50,86c-19.851,0-36-16.149-36-36s16.149-36,36-36s36,16.149,36,36S69.851,86,50,86z M50,16	c-18.748,0-34,15.252-34,34s15.252,34,34,34s34-15.252,34-34S68.748,16,50,16z"/><path d="M65.5,24.227c-0.086,0-0.174-0.022-0.254-0.069c-0.642-0.379-1.303-0.738-1.967-1.066c-0.248-0.123-0.349-0.422-0.227-0.67	s0.421-0.348,0.67-0.227c0.686,0.339,1.37,0.71,2.033,1.102c0.238,0.141,0.316,0.447,0.176,0.685	C65.837,24.139,65.67,24.227,65.5,24.227z"/><path d="M68.5,26.249c-0.106,0-0.212-0.034-0.303-0.103c-0.323-0.247-0.651-0.487-0.983-0.719c-0.226-0.159-0.281-0.471-0.123-0.697	c0.159-0.226,0.471-0.281,0.697-0.123c0.343,0.241,0.683,0.489,1.017,0.745c0.219,0.167,0.261,0.481,0.093,0.701	C68.799,26.182,68.65,26.249,68.5,26.249z"/><path fill="#1f212b" d="M50,81c-17.093,0-31-13.907-31-31s13.907-31,31-31c3.667,0,7.257,0.635,10.672,1.887	c0.259,0.095,0.393,0.382,0.297,0.641c-0.095,0.26-0.382,0.396-0.641,0.297C57.024,20.614,53.549,20,50,20	c-16.542,0-30,13.458-30,30s13.458,30,30,30s30-13.458,30-30c0-8.439-3.585-16.536-9.836-22.213	c-0.205-0.186-0.22-0.502-0.034-0.706c0.186-0.205,0.503-0.219,0.706-0.034C77.295,32.913,81,41.279,81,50	C81,67.093,67.093,81,50,81z"/><path fill="#fff" d="M53,31h-4h-2h-4v38h2V33h2v19v17h2V52h4c5.514,0,10-4.486,10-10v-1C63,35.486,58.514,31,53,31z M61,42c0,4.411-3.589,8-8,8h-4V33h4c4.411,0,8,3.589,8,8V42z"/></svg>